<svg xmlns="http://www.w3.org/2000/svg" xmlns:xlink="http://www.w3.org/1999/xlink" version="1.1" id="Capa_1" x="0px" y="0px" style="enable-background:new 0 0 512 512;" xml:space="preserve" viewBox="0 80.99 512 350.01">
<polygon style="fill:#FFDC64;" points="439.994,227.497 345.936,227.497 165.063,227.497 72.006,227.497 6.796,424.005   505.203,424.005 "/>
<g>
	<path style="fill:#EFC03C;" d="M410.841,372.638l-17.397-20.821c-0.205-0.245-0.424-0.47-0.652-0.683   c1.466-2.729,2.3-5.791,2.382-8.959c0.15-5.743-2.191-11.287-6.421-15.212c-6.661-6.182-16.66-7.076-24.312-2.175   c-0.724,0.464-1.425,0.977-2.08,1.524c-4.404,3.68-7.016,9.087-7.165,14.837c-0.149,5.742,2.191,11.286,6.421,15.21   c5.413,5.023,13.031,6.555,19.802,4.322c0.202,0.327,0.423,0.645,0.673,0.944l17.078,20.439c2.287,2.738,6.21,3.726,9.361,2.052   C412.914,381.79,413.839,376.226,410.841,372.638z"/>
	<path style="fill:#EFC03C;" d="M100.667,378.073l-17.043-21.111c-0.202-0.251-0.421-0.479-0.647-0.696   c3.865-6.921,3.401-15.794-1.875-22.33c-6.927-8.581-19.545-9.926-28.126-2.999s-9.926,19.545-2.999,28.126   c5.276,6.536,13.851,8.86,21.432,6.542c0.165,0.267,0.342,0.529,0.544,0.779l17.043,21.112c2.602,3.223,7.323,3.727,10.547,1.125   C102.766,386.019,103.269,381.297,100.667,378.073z"/>
	<path style="fill:#EFC03C;" d="M255.499,332.241l2.1-6.624c3.762-11.865,10.841-35.794,15.992-62.769   c2.432-12.733,4.143-24.517,5.146-35.35H165.063H80.725c2.039,12.684,6.503,25.185,13.574,36.824   c26.832,44.166,141.375,64.585,154.347,66.768L255.499,332.241z"/>
</g>
<polygon style="fill:#00C3FF;" points="484.961,363.003 464.054,300 427.03,300 402.372,227.497 357.889,227.497 382.548,300   288.875,300 222.125,300 47.947,300 27.04,363.003 129.636,363.003 108.889,424.005 175.436,424.005 196.183,363.003   316.817,363.003 337.563,424.005 404.11,424.005 383.363,363.003 "/>
<g>
	<path style="fill:#05ACD3;" d="M393.445,351.817c-0.205-0.245-0.424-0.47-0.652-0.683c1.466-2.729,2.3-5.792,2.382-8.959   c0.15-5.743-2.191-11.287-6.421-15.212c-6.661-6.182-16.659-7.076-24.312-2.175c-0.725,0.464-1.425,0.977-2.08,1.524   c-4.404,3.68-7.016,9.087-7.165,14.837c-0.149,5.742,2.191,11.286,6.421,15.21c5.413,5.023,13.031,6.555,19.802,4.322   c0.201,0.327,0.423,0.645,0.673,0.945l1.353,1.619l-0.083-0.243h19.427L393.445,351.817z"/>
	<path style="fill:#05ACD3;" d="M83.624,356.963c-0.202-0.251-0.421-0.479-0.647-0.696c3.865-6.921,3.401-15.793-1.875-22.33   c-6.927-8.581-19.545-9.927-28.126-2.999c-8.581,6.927-9.926,19.545-2.999,28.126c1.257,1.556,2.704,2.866,4.277,3.939h34.247   L83.624,356.963z"/>
	<path style="fill:#05ACD3;" d="M248.646,331.088l6.853,1.153l2.1-6.624c1.875-5.913,4.574-14.826,7.448-25.616h-42.923h-80.46   C184.778,319.815,239.882,329.613,248.646,331.088z"/>
</g>
<path style="fill:#FF507D;" d="M250.241,327.697c-9.953-8.601-97.245-85.525-97.245-137.202  c0-56.521,45.983-102.504,102.504-102.504s102.504,45.983,102.504,102.504c0,23.462-17.163,54.359-51.013,91.833  c-18.407,20.379-36.883,37.156-46.258,45.342l-5.234,4.571L250.241,327.697z"/>
<path style="fill:#EF1846;" d="M311.05,136.995c-13.122-14.688-30.603-22.857-48.583-24.53c-5.329-0.496-9.182-5.295-8.568-10.611  l0.916-7.936c0.369-3.193-2.243-5.935-5.451-5.744c-53.676,3.184-96.369,47.862-96.369,102.323  c0,51.677,87.292,128.6,97.245,137.202l5.258,4.543l-5.106-61.155c-0.448-5.371,3.584-10.064,8.966-10.34  c19.289-0.988,38.262-9.415,52.185-25.31C336.141,207.358,335.918,164.833,311.05,136.995z"/>
<path style="fill:#FFFFFF;" d="M255.5,232.997c-25.642,0-46.502-20.861-46.502-46.502s20.86-46.502,46.502-46.502  s46.502,20.861,46.502,46.502S281.141,232.997,255.5,232.997z"/>
<g>
	<path style="fill:#FF507D;" d="M108.494,205.462c-12.959,0-23.501-10.542-23.501-23.501s10.542-23.501,23.501-23.501   s23.501,10.542,23.501,23.501S121.453,205.462,108.494,205.462z"/>
	<path style="fill:#FF507D;" d="M94.698,355.937c-11.028,0-20.001-8.972-20.001-20.001s8.972-20.001,20.001-20.001   s20.001,8.972,20.001,20.001S105.726,355.937,94.698,355.937z"/>
	<path style="fill:#FF507D;" d="M405.086,350.805c-0.854,0-1.721-0.055-2.573-0.164c-9.015-1.146-16.114-8.242-17.263-17.258   c-0.73-5.723,1.028-11.478,4.824-15.79c3.801-4.316,9.271-6.791,15.012-6.791c0.854,0,1.72,0.055,2.573,0.164   c9.015,1.146,16.114,8.242,17.263,17.258c0.73,5.723-1.028,11.479-4.825,15.791C416.297,348.33,410.825,350.805,405.086,350.805   L405.086,350.805z"/>
</g>
<g>
	<path style="fill:#EF1846;" d="M102.603,175.76c0-6.804,2.91-12.94,7.547-17.236c-0.548-0.038-1.099-0.065-1.656-0.065   c-13.842,0-24.927,12.028-23.352,26.182c1.194,10.726,9.792,19.387,20.511,20.652c4.918,0.581,9.583-0.371,13.583-2.437   c2.036-1.052,1.792-4.04-0.387-4.748C109.43,195.046,102.603,186.188,102.603,175.76z"/>
	<path style="fill:#EF1846;" d="M92.306,329.735c0-4.242,1.338-8.171,3.604-11.407c0.695-0.992,0.028-2.39-1.183-2.392   c-0.01,0-0.02,0-0.03,0c-11.387,0-20.583,9.565-19.972,21.084c0.545,10.288,9.116,18.628,19.416,18.911   c4.949,0.136,9.499-1.547,13.059-4.417c0.948-0.764,0.606-2.274-0.562-2.62C98.364,346.443,92.306,338.792,92.306,329.735z"/>
	<path style="fill:#EF1846;" d="M402.86,327.184c-0.73-5.723,1.028-11.478,4.824-15.79c0.11-0.125,0.226-0.243,0.339-0.365   c-0.122-0.018-0.241-0.046-0.365-0.062c-0.854-0.108-1.72-0.164-2.573-0.164c-5.739,0-11.21,2.475-15.012,6.791   c-3.796,4.311-5.555,10.066-4.824,15.79c1.148,9.015,8.247,16.112,17.263,17.258c0.853,0.108,1.719,0.164,2.573,0.164h0.001   c4.885,0,9.573-1.798,13.204-4.995c0.641-0.564,0.352-1.608-0.476-1.814C409.918,342.033,403.908,335.413,402.86,327.184z"/>
</g>
<path d="M309.002,186.496c0-29.501-24.001-53.502-53.502-53.502s-53.502,24.001-53.502,53.502s24.001,53.502,53.502,53.502  S309.002,215.997,309.002,186.496z M216.999,186.496c0-21.23,17.272-38.502,38.502-38.502c21.23,0,38.502,17.272,38.502,38.502  s-17.272,38.502-38.502,38.502S216.999,207.725,216.999,186.496z"/>
<path d="M511.561,420.937l-20.127-60.651c-0.004-0.014-0.01-0.028-0.014-0.042l-20.562-61.961c-0.004-0.014-0.009-0.027-0.013-0.04  l-24.094-72.607c-1.018-3.067-3.887-5.138-7.118-5.138h-81.595c4.367-10.35,6.967-20.497,6.967-30.001  c0-60.38-49.123-109.504-109.504-109.504s-109.505,49.124-109.505,109.504c0,9.504,2.601,19.651,6.967,30.001h-36.969v-8.969  c13.629-3.459,23.629-16.117,22.97-30.948c-0.684-15.393-13.068-28.052-28.442-29.052c-17.732-1.153-32.529,12.946-32.529,30.435  c0,14.231,9.797,26.214,23.001,29.565v8.969H72.368c-3.231,0-6.101,2.07-7.118,5.138l-24.094,72.608  c-0.004,0.013-0.009,0.026-0.013,0.04l-20.562,61.96c-0.004,0.014-0.01,0.028-0.014,0.042L0.44,420.937  c-0.522,1.573-0.611,3.287-0.094,4.862c1.047,3.195,3.968,5.206,7.144,5.206h102.074c0.008,0,0.016,0.002,0.024,0.002  s0.017-0.002,0.025-0.002h149.801c4.142,0,7.5-3.358,7.5-7.5l0,0c0-4.142-3.358-7.5-7.5-7.5H185.55l15.645-46.002h110.609  l15.646,46.002h-24.372c-4.142,0-7.5,3.358-7.5,7.5l0,0c0,4.142,3.358,7.5,7.5,7.5H504.51c3.176,0,6.097-2.011,7.144-5.206  C512.171,424.224,512.083,422.511,511.561,420.937z M434.219,235.498L453.301,293h-21.258l-19.556-57.502L434.219,235.498  L434.219,235.498z M353.216,235.498L372.773,293h-66.046c15.879-17.034,32.482-37.259,43.885-57.502L353.216,235.498  L353.216,235.498z M255.5,95.992c52.109,0,94.504,42.395,94.504,94.504c0,21.118-16.927,51.019-48.949,86.47  c-18.432,20.406-37.077,37.251-45.583,44.679c-30.3-26.183-94.476-90.153-94.476-131.148  C160.996,138.386,203.39,95.992,255.5,95.992z M92.993,181.961c0-8.547,6.953-15.501,15.501-15.501s15.501,6.953,15.501,15.501  s-6.953,15.501-15.501,15.501S92.993,190.509,92.993,181.961z M104.216,416.005H17.88l15.266-46.002h54.051v12.565  c0,4.142,3.357,7.5,7.5,7.5c4.143,0,7.5-3.358,7.5-7.5v-12.565h17.664L104.216,416.005z M82.697,335.936c0-6.617,5.383-12,12-12  c6.617,0,12,5.383,12,12s-5.383,12-12,12C88.08,347.936,82.697,342.553,82.697,335.936z M375.564,364.918l17.375,51.087h-49.645  l-19.018-55.917c-1.034-3.04-3.889-5.085-7.101-5.085h-121.35c-3.211,0-6.066,2.045-7.1,5.085l-19.018,55.917h-49.646l17.375-51.087  c1.026-3.016,0.052-6.439-2.649-8.457c-1.334-0.996-2.994-1.458-4.659-1.458h-16.33c5.359-5.368,8.477-12.975,7.812-21.278  c-1.059-13.233-11.893-23.882-25.141-24.732c-15.687-1.007-28.773,11.469-28.773,26.944c0,7.435,3.021,14.179,7.9,19.066H38.124  l15.597-47.002h75.095c4.142,0,7.5-3.358,7.5-7.5l0,0c0-4.142-3.358-7.5-7.5-7.5H58.699l19.082-57.502h23.213v1.152  c0,4.107,3.165,7.688,7.27,7.811c4.247,0.127,7.73-3.278,7.73-7.497v-1.466h44.393c11.403,20.244,28.006,40.469,43.885,57.502  h-31.793c-4.142,0-7.5,3.358-7.5,7.5l0,0c0,4.142,3.358,7.5,7.5,7.5h46.352c16.85,16.709,30.368,28.018,31.879,29.272  c1.389,1.153,3.089,1.729,4.79,1.729s3.401-0.576,4.79-1.729c1.511-1.254,15.03-12.564,31.879-29.272h90.87  c1.665,0,3.325-0.462,4.659-1.458c2.702-2.018,3.675-5.441,2.649-8.457l-21.286-62.588h27.581l22.929,67.418  c1.034,3.04,3.889,5.085,7.101,5.085h31.606l15.597,47.002h-56.78c7.883-3.93,13.618-11.633,14.767-20.678  c2.242-17.638-12.659-32.538-30.296-30.296c-12.386,1.574-22.156,11.684-23.353,24.112c-1.128,11.701,5.268,22.076,14.909,26.862  h-10.249c-1.665,0-3.325,0.462-4.659,1.458C375.512,358.478,374.538,361.902,375.564,364.918z M403.521,342.706  c-5.341-0.679-9.654-4.991-10.335-10.332c-0.999-7.841,5.624-14.467,13.466-13.47c5.341,0.679,9.654,4.991,10.335,10.332  C417.986,337.078,411.363,343.703,403.521,342.706z M408.783,416.005l-15.646-46.002h4.447v7.186c0,3.568,2.376,6.841,5.868,7.577  c4.856,1.023,9.132-2.653,9.132-7.328v-7.435h66.268l15.266,46.002H408.783z"/>
<g>
</g>
<g>
</g>
<g>
</g>
<g>
</g>
<g>
</g>
<g>
</g>
<g>
</g>
<g>
</g>
<g>
</g>
<g>
</g>
<g>
</g>
<g>
</g>
<g>
</g>
<g>
</g>
<g>
</g>
</svg>